<svg id="Layer_1" data-name="Layer 1" xmlns="http://www.w3.org/2000/svg" viewBox="0 0 1350 875">
  <defs>
    <style>.cls-1{fill:none;}.cls-2{fill:#979e77;}</style>
  </defs>
  <title>Logo</title>
  <rect class="cls-1" width="1350" height="875" />
  <path class="cls-2" d="M516.65,503.57a61.24,61.24,0,1,1,61.24-61.24A61.3,61.3,0,0,1,516.65,503.57Zm0-121.11a59.88,59.88,0,1,0,59.87,59.87A59.94,59.94,0,0,0,516.65,382.46Z" />
  <path class="cls-2" d="M454.16,379.84l-1.42-1.42a90.39,90.39,0,0,1,127.82,0l-1.42,1.42a88.38,88.38,0,0,0-125,0Z" />
  <path class="cls-2" d="M517.15,523.05c-12-28.33-12.28-53.59-.76-75.09l.1-.18c-1.15-2-2.4-4-3.76-6-14.28-.92-41.59-7.5-58.72-42.15l-.86-1.73,1.79.72c27.18,11,46.79,25,58.67,41.74,1.11.06,2.13.08,3,.08,1.36,0,2.87-.07,4.5-.23,11.61-16.6,30.8-30.65,57.2-41.86l1.71-.72-.75,1.7C566,429.5,538.47,439.8,522,441.63c-1.36,2-2.62,4-3.76,6.07,11.75,21.24,12,46.38.56,74.8l-.31-.13,0,.1Zm.19-73.73c-10.73,20.53-10.56,44.59.5,71.54C528.52,493.79,528.25,469.75,517.34,449.32Zm-2.68-7.41c1,1.41,1.86,2.85,2.7,4.29.85-1.48,1.76-2.95,2.72-4.39-1.22.09-2.37.13-3.43.13Zm-58.45-41.15c16.36,31.53,41.41,38.32,55.41,39.5C500.11,424.55,481.59,411.28,456.21,400.76Zm121-.27c-24.67,10.72-42.8,24-54,39.52C539,437.88,564.19,428,577.17,400.49Z" />
  <path class="cls-2" d="M516.65,414.94a10.58,10.58,0,1,1,10.57-10.58A10.59,10.59,0,0,1,516.65,414.94Zm0-19.68a9.1,9.1,0,1,0,9.1,9.1A9.11,9.11,0,0,0,516.65,395.26Z" />
  <rect class="cls-2" x="452.9" y="366.68" width="2.01" height="24.8" transform="translate(-136.59 411.38) rotate(-43)" />
  <rect class="cls-2" x="449.33" y="375.75" width="2.01" height="14.33" transform="translate(-140.17 409.97) rotate(-43)" />
  <rect class="cls-2" x="568.66" y="378.08" width="24.8" height="2.01" transform="matrix(0.73, -0.68, 0.68, 0.73, -102.41, 498.25)" />
  <rect class="cls-2" x="577.73" y="381.65" width="14.33" height="2.01" transform="translate(-103.82 501.79) rotate(-43.01)" />
  <path class="cls-2" d="M652.33,442.27l-5.06-11.15H623.78l-5.06,11.15h-3.07l18.54-40.1H637l18.54,40.1Zm-16.78-36.86-10.52,23h21Z" />
  <path class="cls-2" d="M669.68,442.27V402.45h3V439.6H696v2.67Z" />
  <path class="cls-2" d="M711,442.27V402.45h3v39.82Z" />
  <path class="cls-2" d="M762.42,438.83a20.88,20.88,0,0,1-3.59,2.19,20.2,20.2,0,0,1-4.12,1.42,21.59,21.59,0,0,1-4.84.51A19.46,19.46,0,0,1,735.68,437a19.84,19.84,0,0,1-4.12-6.52,21.55,21.55,0,0,1-1.48-8v-.12a21.07,21.07,0,0,1,1.51-8,20.85,20.85,0,0,1,4.15-6.57A19.21,19.21,0,0,1,750,401.77a23,23,0,0,1,4.83.46,19,19,0,0,1,4,1.3,21.69,21.69,0,0,1,3.47,2,34.13,34.13,0,0,1,3.16,2.59l-2.11,2.16a31.69,31.69,0,0,0-2.73-2.33,16.79,16.79,0,0,0-3-1.85,17.54,17.54,0,0,0-7.65-1.67,16.12,16.12,0,0,0-12,5.14,18,18,0,0,0-3.53,5.66,19,19,0,0,0-1.28,7v.11a18.82,18.82,0,0,0,1.31,7,18.06,18.06,0,0,0,3.56,5.68,16.17,16.17,0,0,0,5.31,3.81,15.93,15.93,0,0,0,6.66,1.4,16.66,16.66,0,0,0,7.51-1.59,24.54,24.54,0,0,0,6.2-4.61l2,1.93A40.15,40.15,0,0,1,762.42,438.83Z" />
  <path class="cls-2" d="M779.9,442.27V402.45h3v39.82Z" />
  <path class="cls-2" d="M834.05,442.27,829,431.12H805.5l-5.06,11.15h-3.08l18.55-40.1h2.84l18.54,40.1Zm-16.78-36.86-10.52,23h21Z" />
  <path class="cls-2" d="M637.77,485.5V463.38l-10.08,14.67h-.15l-10.07-14.67V485.5h-1.82V460h1.78l10.22,15.06L637.88,460h1.78V485.5Z" />
  <path class="cls-2" d="M663.2,485.5v-3.09a9,9,0,0,1-1.15,1.29,7.75,7.75,0,0,1-1.54,1.13,8.71,8.71,0,0,1-2,.8,8.81,8.81,0,0,1-2.42.31,9.45,9.45,0,0,1-2.58-.36,7.47,7.47,0,0,1-2.29-1.1,5.87,5.87,0,0,1-1.66-1.81,5,5,0,0,1-.63-2.55v-.07a5.47,5.47,0,0,1,.6-2.59,5.54,5.54,0,0,1,1.65-1.89,7.58,7.58,0,0,1,2.55-1.16,12.62,12.62,0,0,1,3.31-.4,23.38,23.38,0,0,1,3.38.21,24.72,24.72,0,0,1,2.77.59V474a5.31,5.31,0,0,0-1.62-4.23,6.62,6.62,0,0,0-4.49-1.41,11,11,0,0,0-3.13.42,14.79,14.79,0,0,0-2.69,1.07l-.66-1.57a19.84,19.84,0,0,1,3.09-1.19,13.09,13.09,0,0,1,3.5-.44,8.26,8.26,0,0,1,5.67,1.82,6.87,6.87,0,0,1,2.07,5.45V485.5Zm0-9.06c-.78-.19-1.69-.38-2.73-.56a21.27,21.27,0,0,0-3.57-.27,7.47,7.47,0,0,0-4.53,1.18,3.7,3.7,0,0,0-1.58,3.13V480a3.47,3.47,0,0,0,.44,1.79,4.05,4.05,0,0,0,1.18,1.33,5.45,5.45,0,0,0,1.73.83,7.22,7.22,0,0,0,2,.29,8.57,8.57,0,0,0,2.7-.42,7.16,7.16,0,0,0,2.23-1.16,5.47,5.47,0,0,0,1.53-1.79,4.77,4.77,0,0,0,.57-2.32Z" />
  <path class="cls-2" d="M687.48,484.89a8.48,8.48,0,0,1-4.34,1.05,8.94,8.94,0,0,1-3.73-.78,9.66,9.66,0,0,1-5.7-8.86v-.07a9.7,9.7,0,0,1,.72-3.72,9.84,9.84,0,0,1,2-3.09,9.51,9.51,0,0,1,3-2.13,8.94,8.94,0,0,1,3.73-.78,9.31,9.31,0,0,1,2.38.28,9.56,9.56,0,0,1,2,.76,9.8,9.8,0,0,1,1.66,1.11,17.35,17.35,0,0,1,1.4,1.31l-1.28,1.31a14,14,0,0,0-2.65-2.15,6.59,6.59,0,0,0-3.53-.91,7.15,7.15,0,0,0-3,.62,7.36,7.36,0,0,0-2.36,1.68,7.75,7.75,0,0,0-1.58,2.52,8.24,8.24,0,0,0-.59,3.11v.08a8.19,8.19,0,0,0,.6,3.13,8,8,0,0,0,1.64,2.55,7.47,7.47,0,0,0,2.42,1.7,7.26,7.26,0,0,0,3,.62,7,7,0,0,0,3.52-.89,10.9,10.9,0,0,0,2.71-2.2l1.23,1.09A13.2,13.2,0,0,1,687.48,484.89Z" />
  <path class="cls-2" d="M720.83,477.79a11.85,11.85,0,0,1-2.79,4,13.08,13.08,0,0,1-4.29,2.69,14.7,14.7,0,0,1-5.47,1H699.8V460h8.48a15.11,15.11,0,0,1,5.47,1,12.87,12.87,0,0,1,4.29,2.67,11.87,11.87,0,0,1,2.79,4,12.79,12.79,0,0,1,1,5v.07A12.87,12.87,0,0,1,720.83,477.79Zm-1-5a11.31,11.31,0,0,0-.82-4.27,10.72,10.72,0,0,0-2.31-3.51,11.14,11.14,0,0,0-3.64-2.37,12.67,12.67,0,0,0-4.8-.87h-6.59v22h6.59a12.86,12.86,0,0,0,4.8-.85,10.91,10.91,0,0,0,3.64-2.34,10.55,10.55,0,0,0,2.31-3.47,11.23,11.23,0,0,0,.82-4.29Z" />
  <path class="cls-2" d="M755.45,477.77a13.15,13.15,0,0,1-2.61,4.2,12.18,12.18,0,0,1-4.05,2.9,12.75,12.75,0,0,1-5.26,1.07,12.34,12.34,0,0,1-9.28-3.95,13,13,0,0,1-2.58-4.16,13.72,13.72,0,0,1-.91-5v-.07a13.62,13.62,0,0,1,.93-5,13.28,13.28,0,0,1,2.6-4.21,12.36,12.36,0,0,1,4-2.89,12.66,12.66,0,0,1,17.13,7,13.72,13.72,0,0,1,.91,5,0,0,0,0,1,0,.07A13.82,13.82,0,0,1,755.45,477.77Zm-1-5a12.06,12.06,0,0,0-.82-4.46,11.58,11.58,0,0,0-2.26-3.64,10.63,10.63,0,0,0-3.43-2.45,10.4,10.4,0,0,0-4.37-.91,10.42,10.42,0,0,0-7.77,3.33,11.26,11.26,0,0,0-2.24,3.62,12.28,12.28,0,0,0-.8,4.44v.07a12.26,12.26,0,0,0,.82,4.46,11.58,11.58,0,0,0,2.26,3.64,10.67,10.67,0,0,0,3.44,2.45,10.35,10.35,0,0,0,4.36.91,10.42,10.42,0,0,0,7.77-3.33,11.26,11.26,0,0,0,2.24-3.62,12.28,12.28,0,0,0,.8-4.44Z" />
  <path class="cls-2" d="M786.17,479.52A9.71,9.71,0,0,1,784,483a9,9,0,0,1-3.29,2.15,11.94,11.94,0,0,1-4.24.72,11.79,11.79,0,0,1-4.2-.71,9,9,0,0,1-3.31-2.11,9.58,9.58,0,0,1-2.17-3.43,13.68,13.68,0,0,1-.76-4.73V460h1.89v14.69c0,3,.76,5.37,2.28,7a8.2,8.2,0,0,0,6.35,2.45,9.9,9.9,0,0,0,3.49-.58,7.11,7.11,0,0,0,2.67-1.74,7.86,7.86,0,0,0,1.71-2.92,12.38,12.38,0,0,0,.6-4V460h1.89V474.7A14,14,0,0,1,786.17,479.52Z" />
  <path class="cls-2" d="M815.11,484.8a13.87,13.87,0,0,1-5.69,1.14,13.41,13.41,0,0,1-5.4-1,11.67,11.67,0,0,1-4-2.82,12.28,12.28,0,0,1-2.52-4.16,14.69,14.69,0,0,1-.87-5.08v-.07a14.19,14.19,0,0,1,.89-5,13.11,13.11,0,0,1,2.55-4.2,12.53,12.53,0,0,1,4-2.91,12,12,0,0,1,5.17-1.09,16.79,16.79,0,0,1,2.86.22,11.73,11.73,0,0,1,2.4.65,13.43,13.43,0,0,1,2.11,1.06,15.73,15.73,0,0,1,1.94,1.42l-1.23,1.42a13.76,13.76,0,0,0-3.4-2.19,11.59,11.59,0,0,0-4.79-.87,9.84,9.84,0,0,0-4.26.91,10.26,10.26,0,0,0-3.32,2.47,11.07,11.07,0,0,0-2.17,3.63,12.46,12.46,0,0,0-.76,4.36v.07a13.58,13.58,0,0,0,.74,4.58,10.36,10.36,0,0,0,2.17,3.63,10,10,0,0,0,3.44,2.4,11.38,11.38,0,0,0,4.56.87,11.76,11.76,0,0,0,2.37-.24,12.73,12.73,0,0,0,2.2-.63,13.88,13.88,0,0,0,1.94-.92,10.69,10.69,0,0,0,1.6-1.11V474h-8.51v-1.71h10.33v9.8A16.83,16.83,0,0,1,815.11,484.8Z" />
  <path class="cls-2" d="M851.19,485.5,848,478.37h-15l-3.24,7.13h-2l11.86-25.65h1.82l11.86,25.65Zm-10.74-23.57-6.73,14.73h13.43Z" />
  <path class="cls-2" d="M862.28,485.5V460h1.89v23.75h15v1.71Z" />
  <path class="cls-2" d="M888.44,485.5V460h1.89v23.75h15v1.71Z" />
</svg>
