<?xml version="1.0" encoding="UTF-8" standalone="no" ?>
<svg xmlns:dc="http://purl.org/dc/elements/1.1/" xmlns:cc="http://creativecommons.org/ns#" xmlns:rdf="http://www.w3.org/1999/02/22-rdf-syntax-ns#" xmlns:svg="http://www.w3.org/2000/svg" xmlns="http://www.w3.org/2000/svg" xmlns:sodipodi="http://sodipodi.sourceforge.net/DTD/sodipodi-0.dtd" xmlns:inkscape="http://www.inkscape.org/namespaces/inkscape" inkscape:version="1.0 (4035a4f, 2020-05-01)" height="171.09924" width="460.61996" sodipodi:docname="Logo-2.svg" version="1.1" viewBox="0 0 460.61996 171.09924" data-name="Layer 1" id="Layer_1">
  <metadata id="metadata69">
    <rdf:RDF>
      <cc:Work rdf:about="">
        <dc:format>image/svg+xml</dc:format>
        <dc:type rdf:resource="http://purl.org/dc/dcmitype/StillImage" />
        <dc:title>Logo</dc:title>
      </cc:Work>
    </rdf:RDF>
  </metadata>
  <sodipodi:namedview inkscape:current-layer="Layer_1" inkscape:window-maximized="1" inkscape:window-y="23" inkscape:window-x="0" inkscape:cy="67.908108" inkscape:cx="147.37666" inkscape:zoom="0.85028571" fit-margin-bottom="0" fit-margin-right="0" fit-margin-left="0" fit-margin-top="0" showgrid="false" id="namedview67" inkscape:window-height="952" inkscape:window-width="1680" inkscape:pageshadow="2" inkscape:pageopacity="0" guidetolerance="10" gridtolerance="10" objecttolerance="10" borderopacity="1" bordercolor="#666666" pagecolor="#ffffff" />
  <defs id="defs12">
    <style id="style10">.cls-1{fill:none;}.cls-2{fill:#fff8f0;}</style>
  </defs>
  <title id="title14">Logo</title>
  <path id="path18" d="M 71.939968,151.61924 A 61.24,61.24 0 1 1 133.17997,90.379238 61.3,61.3 0 0 1 71.939968,151.61924 Z m 0,-121.110002 a 59.88,59.88 0 1 0 59.870002,59.87 59.94,59.94 0 0 0 -59.870002,-59.87 z" class="cls-2" />
  <path id="path20" d="m 9.4499678,27.889238 -1.42,-1.42 a 90.39,90.39 0 0 1 127.8200022,0 l -1.42,1.42 a 88.38,88.38 0 0 0 -125.0000022,0 z" class="cls-2" />
  <path id="path22" d="m 72.439968,171.09924 c -12,-28.33 -12.28,-53.59 -0.76,-75.090002 l 0.1,-0.18 c -1.15,-2 -2.4,-4 -3.76,-6 -14.28,-0.92 -41.59,-7.5 -58.7200002,-42.15 l -0.86,-1.73 1.7900002,0.72 c 27.18,11 46.79,25 58.67,41.74 1.11,0.06 2.13,0.08 3,0.08 1.36,0 2.87,-0.07 4.5,-0.23 11.61,-16.6 30.800002,-30.65 57.200002,-41.86 l 1.71,-0.72 -0.75,1.7 c -13.27,30.17 -40.800002,40.47 -57.270002,42.3 -1.36,2 -2.62,4 -3.76,6.07 11.75,21.240002 12,46.380002 0.56,74.800002 l -0.31,-0.13 v 0.1 z m 0.19,-73.730002 c -10.73,20.530002 -10.56,44.590002 0.5,71.540002 10.68,-27.07 10.41,-51.11 -0.5,-71.540002 z m -2.68,-7.41 c 1,1.41 1.86,2.85 2.7,4.29 0.85,-1.48 1.76,-2.95 2.72,-4.39 -1.22,0.09 -2.37,0.13 -3.43,0.13 z m -58.45,-41.15 c 16.36,31.53 41.41,38.32 55.41,39.5 -11.51,-15.71 -30.03,-28.98 -55.41,-39.5 z m 121.000002,-0.27 c -24.67,10.72 -42.800002,24 -54.000002,39.52 15.79,-2.13 40.980002,-12.01 53.960002,-39.52 z" class="cls-2" />
  <path id="path24" d="m 71.939968,62.989238 a 10.58,10.58 0 1 1 10.57,-10.58 10.59,10.59 0 0 1 -10.57,10.58 z m 0,-19.68 a 9.1,9.1 0 1 0 9.1,9.1 9.11,9.11 0 0 0 -9.1,-9.1 z" class="cls-2" />
  <rect id="rect26" transform="rotate(-43)" height="24.799999" width="2.01" y="13.698119" x="-12.766582" class="cls-2" />
  <rect id="rect28" transform="rotate(-43)" height="14.33" width="2.01" y="19.295362" x="-17.993216" class="cls-2" />
  <rect style="stroke-width:0.997647" id="rect30" transform="rotate(-42.969086)" height="2.005271" width="24.741652" y="111.32175" x="67.264427" class="cls-2" />
  <rect id="rect32" transform="rotate(-43.01)" height="2.01" width="14.33" y="117.05104" x="74.416565" class="cls-2" />
  <path id="path34" d="m 207.61997,90.319238 -5.06,-11.15 h -23.49 l -5.06,11.15 h -3.07 l 18.54,-40.1 h 2.81 l 18.54,40.1 z m -16.78,-36.86 -10.52,23 h 21 z" class="cls-2" />
  <path id="path36" d="m 224.96997,90.319238 v -39.82 h 3 v 37.15 h 23.32 v 2.67 z" class="cls-2" />
  <path id="path38" d="m 266.28997,90.319238 v -39.82 h 3 v 39.82 z" class="cls-2" />
  <path id="path40" d="m 317.70997,86.879238 a 20.88,20.88 0 0 1 -3.59,2.19 20.2,20.2 0 0 1 -4.12,1.42 21.59,21.59 0 0 1 -4.84,0.51 19.46,19.46 0 0 1 -14.19,-5.95 19.84,19.84 0 0 1 -4.12,-6.52 21.55,21.55 0 0 1 -1.48,-8 v -0.12 a 21.07,21.07 0 0 1 1.51,-8 20.85,20.85 0 0 1 4.15,-6.57 19.21,19.21 0 0 1 14.26,-6.02 23,23 0 0 1 4.83,0.46 19,19 0 0 1 4,1.3 21.69,21.69 0 0 1 3.47,2 34.13,34.13 0 0 1 3.16,2.59 l -2.11,2.16 a 31.69,31.69 0 0 0 -2.73,-2.33 16.79,16.79 0 0 0 -3,-1.85 17.54,17.54 0 0 0 -7.65,-1.67 16.12,16.12 0 0 0 -12,5.14 18,18 0 0 0 -3.53,5.66 19,19 0 0 0 -1.28,7 v 0.11 a 18.82,18.82 0 0 0 1.31,7 18.06,18.06 0 0 0 3.56,5.68 16.17,16.17 0 0 0 5.31,3.81 15.93,15.93 0 0 0 6.66,1.4 16.66,16.66 0 0 0 7.51,-1.59 24.54,24.54 0 0 0 6.2,-4.61 l 2,1.93 a 40.15,40.15 0 0 1 -3.29,2.87 z" class="cls-2" />
  <path id="path42" d="m 335.18997,90.319238 v -39.82 h 3 v 39.82 z" class="cls-2" />
  <path id="path44" d="m 389.33997,90.319238 -5.05,-11.15 h -23.5 l -5.06,11.15 h -3.08 l 18.55,-40.1 h 2.84 l 18.54,40.1 z m -16.78,-36.86 -10.52,23 h 21 z" class="cls-2" />
  <path id="path46" d="m 193.05997,133.54924 v -22.12 l -10.08,14.67 h -0.15 l -10.07,-14.67 v 22.12 h -1.82 v -25.5 h 1.78 l 10.22,15.06 10.23,-15.06 h 1.78 v 25.5 z" class="cls-2" />
  <path id="path48" d="m 218.48997,133.54924 v -3.09 a 9,9 0 0 1 -1.15,1.29 7.75,7.75 0 0 1 -1.54,1.13 8.71,8.71 0 0 1 -2,0.8 8.81,8.81 0 0 1 -2.42,0.31 9.45,9.45 0 0 1 -2.58,-0.36 7.47,7.47 0 0 1 -2.29,-1.1 5.87,5.87 0 0 1 -1.66,-1.81 5,5 0 0 1 -0.63,-2.55 v -0.07 a 5.47,5.47 0 0 1 0.6,-2.59 5.54,5.54 0 0 1 1.65,-1.89 7.58,7.58 0 0 1 2.55,-1.16 12.62,12.62 0 0 1 3.31,-0.4 23.38,23.38 0 0 1 3.38,0.21 24.72,24.72 0 0 1 2.77,0.59 v -0.81 a 5.31,5.31 0 0 0 -1.62,-4.23 6.62,6.62 0 0 0 -4.49,-1.41 11,11 0 0 0 -3.13,0.42 14.79,14.79 0 0 0 -2.69,1.07 l -0.66,-1.57 a 19.84,19.84 0 0 1 3.09,-1.19 13.09,13.09 0 0 1 3.5,-0.44 8.26,8.26 0 0 1 5.67,1.82 6.87,6.87 0 0 1 2.07,5.45 v 11.58 z m 0,-9.06 c -0.78,-0.19 -1.69,-0.38 -2.73,-0.56 a 21.27,21.27 0 0 0 -3.57,-0.27 7.47,7.47 0 0 0 -4.53,1.18 3.7,3.7 0 0 0 -1.58,3.13 v 0.08 a 3.47,3.47 0 0 0 0.44,1.79 4.05,4.05 0 0 0 1.18,1.33 5.45,5.45 0 0 0 1.73,0.83 7.22,7.22 0 0 0 2,0.29 8.57,8.57 0 0 0 2.7,-0.42 7.16,7.16 0 0 0 2.23,-1.16 5.47,5.47 0 0 0 1.53,-1.79 4.77,4.77 0 0 0 0.57,-2.32 z" class="cls-2" />
  <path id="path50" d="m 242.76997,132.93924 a 8.48,8.48 0 0 1 -4.34,1.05 8.94,8.94 0 0 1 -3.73,-0.78 9.66,9.66 0 0 1 -5.7,-8.86 v -0.07 a 9.7,9.7 0 0 1 0.72,-3.72 9.84,9.84 0 0 1 2,-3.09 9.51,9.51 0 0 1 3,-2.13 8.94,8.94 0 0 1 3.73,-0.78 9.31,9.31 0 0 1 2.38,0.28 9.56,9.56 0 0 1 2,0.76 9.8,9.8 0 0 1 1.66,1.11 17.35,17.35 0 0 1 1.4,1.31 l -1.28,1.31 a 14,14 0 0 0 -2.65,-2.15 6.59,6.59 0 0 0 -3.53,-0.91 7.15,7.15 0 0 0 -3,0.62 7.36,7.36 0 0 0 -2.36,1.68 7.75,7.75 0 0 0 -1.58,2.52 8.24,8.24 0 0 0 -0.59,3.11 v 0.08 a 8.19,8.19 0 0 0 0.6,3.13 8,8 0 0 0 1.64,2.55 7.47,7.47 0 0 0 2.42,1.7 7.26,7.26 0 0 0 3,0.62 7,7 0 0 0 3.52,-0.89 10.9,10.9 0 0 0 2.71,-2.2 l 1.23,1.09 a 13.2,13.2 0 0 1 -3.25,2.66 z" class="cls-2" />
  <path id="path52" d="m 276.11997,125.83924 a 11.85,11.85 0 0 1 -2.79,4 13.08,13.08 0 0 1 -4.29,2.69 14.7,14.7 0 0 1 -5.47,1 h -8.48 v -25.48 h 8.48 a 15.11,15.11 0 0 1 5.47,1 12.87,12.87 0 0 1 4.29,2.67 11.87,11.87 0 0 1 2.79,4 12.79,12.79 0 0 1 1,5 v 0.07 a 12.87,12.87 0 0 1 -1,5.05 z m -1,-5 a 11.31,11.31 0 0 0 -0.82,-4.27 10.72,10.72 0 0 0 -2.31,-3.51 11.14,11.14 0 0 0 -3.64,-2.37 12.67,12.67 0 0 0 -4.8,-0.87 h -6.59 v 22 h 6.59 a 12.86,12.86 0 0 0 4.8,-0.85 10.91,10.91 0 0 0 3.64,-2.34 10.55,10.55 0 0 0 2.31,-3.47 11.23,11.23 0 0 0 0.82,-4.29 z" class="cls-2" />
  <path id="path54" d="m 310.73997,125.81924 a 13.15,13.15 0 0 1 -2.61,4.2 12.18,12.18 0 0 1 -4.05,2.9 12.75,12.75 0 0 1 -5.26,1.07 12.34,12.34 0 0 1 -9.28,-3.95 13,13 0 0 1 -2.58,-4.16 13.72,13.72 0 0 1 -0.91,-5 v -0.07 a 13.62,13.62 0 0 1 0.93,-5 13.28,13.28 0 0 1 2.6,-4.21 12.36,12.36 0 0 1 4,-2.89 12.66,12.66 0 0 1 17.13,7 13.72,13.72 0 0 1 0.91,5 0,0 0 0 0 0,0.07 13.82,13.82 0 0 1 -0.88,5.04 z m -1,-5 a 12.06,12.06 0 0 0 -0.82,-4.46 11.58,11.58 0 0 0 -2.26,-3.64 10.63,10.63 0 0 0 -3.43,-2.45 10.4,10.4 0 0 0 -4.37,-0.91 10.42,10.42 0 0 0 -7.77,3.33 11.26,11.26 0 0 0 -2.24,3.62 12.28,12.28 0 0 0 -0.8,4.44 v 0.07 a 12.26,12.26 0 0 0 0.82,4.46 11.58,11.58 0 0 0 2.26,3.64 10.67,10.67 0 0 0 3.44,2.45 10.35,10.35 0 0 0 4.36,0.91 10.42,10.42 0 0 0 7.77,-3.33 11.26,11.26 0 0 0 2.24,-3.62 12.28,12.28 0 0 0 0.8,-4.44 z" class="cls-2" />
  <path id="path56" d="m 341.45997,127.56924 a 9.71,9.71 0 0 1 -2.17,3.48 9,9 0 0 1 -3.29,2.15 11.94,11.94 0 0 1 -4.24,0.72 11.79,11.79 0 0 1 -4.2,-0.71 9,9 0 0 1 -3.31,-2.11 9.58,9.58 0 0 1 -2.17,-3.43 13.68,13.68 0 0 1 -0.76,-4.73 v -14.89 h 1.89 v 14.69 c 0,3 0.76,5.37 2.28,7 a 8.2,8.2 0 0 0 6.35,2.45 9.9,9.9 0 0 0 3.49,-0.58 7.11,7.11 0 0 0 2.67,-1.74 7.86,7.86 0 0 0 1.71,-2.92 12.38,12.38 0 0 0 0.6,-4 v -14.9 h 1.89 v 14.7 a 14,14 0 0 1 -0.74,4.82 z" class="cls-2" />
  <path id="path58" d="m 370.39997,132.84924 a 13.87,13.87 0 0 1 -5.69,1.14 13.41,13.41 0 0 1 -5.4,-1 11.67,11.67 0 0 1 -4,-2.82 12.28,12.28 0 0 1 -2.52,-4.16 14.69,14.69 0 0 1 -0.87,-5.08 v -0.07 a 14.19,14.19 0 0 1 0.89,-5 13.11,13.11 0 0 1 2.55,-4.2 12.53,12.53 0 0 1 4,-2.91 12,12 0 0 1 5.17,-1.09 16.79,16.79 0 0 1 2.86,0.22 11.73,11.73 0 0 1 2.4,0.65 13.43,13.43 0 0 1 2.11,1.06 15.73,15.73 0 0 1 1.94,1.42 l -1.23,1.42 a 13.76,13.76 0 0 0 -3.4,-2.19 11.59,11.59 0 0 0 -4.79,-0.87 9.84,9.84 0 0 0 -4.26,0.91 10.26,10.26 0 0 0 -3.32,2.47 11.07,11.07 0 0 0 -2.17,3.63 12.46,12.46 0 0 0 -0.76,4.36 v 0.07 a 13.58,13.58 0 0 0 0.74,4.58 10.36,10.36 0 0 0 2.17,3.63 10,10 0 0 0 3.44,2.4 11.38,11.38 0 0 0 4.56,0.87 11.76,11.76 0 0 0 2.37,-0.24 12.73,12.73 0 0 0 2.2,-0.63 13.88,13.88 0 0 0 1.94,-0.92 10.69,10.69 0 0 0 1.6,-1.11 v -7.34 h -8.51 v -1.71 h 10.33 v 9.8 a 16.83,16.83 0 0 1 -4.35,2.71 z" class="cls-2" />
  <path id="path60" d="m 406.47997,133.54924 -3.19,-7.13 h -15 l -3.24,7.13 h -2 l 11.86,-25.65 h 1.82 l 11.86,25.65 z m -10.74,-23.57 -6.73,14.73 h 13.43 z" class="cls-2" />
  <path id="path62" d="m 417.56997,133.54924 v -25.5 h 1.89 v 23.75 h 15 v 1.71 z" class="cls-2" />
  <path id="path64" d="m 443.72997,133.54924 v -25.5 h 1.89 v 23.75 h 15 v 1.71 z" class="cls-2" />
</svg>
